# xmcd
#
# Track frame offsets:
# 150
# 14138
# 29833
# 37008
# 51571
# 66615
# 81241
# 96348
# 110717
# 122067
# 136298
# 150638
# 164124
# 176854
# 189980
# 203359
# 218315
# 230154
# 244842
# 257020
# 273782
# 286512
# 297008
#
# Disc length: 4026 seconds
#
#
# Revision: 0
# Processed by: cddbd v1.5.2PL0 Copyright (c) Steve Scherf et al.
# Submitted via: FreeRIP 2.945 
#
DISCID=610fb817
DTITLE=Braun-LJ-TCW19 - Tailed-Thief2
DYEAR=1997
DGENRE=Death Metal
TTITLE0=01
TTITLE1=202
TTITLE2=203
TTITLE3=204
TTITLE4=205
TTITLE5=206
TTITLE6=207
TTITLE7=208
TTITLE8=209
TTITLE9=210
TTITLE10=211
TTITLE11=212
TTITLE12=213
TTITLE13=214
TTITLE14=215
TTITLE15=216
TTITLE16=217
TTITLE17=218
TTITLE18=219
TTITLE19=210
TTITLE20=221
TTITLE21=222
TTITLE22=223
EXTD=The Cat Who Tailed a Thief 1997\nby Lilian Jackson Braun - \nread by George Guidall -  6 CDs
EXTT0=
EXTT1=
EXTT2=
EXTT3=
EXTT4=
EXTT5=
EXTT6=
EXTT7=
EXTT8=
EXTT9=
EXTT10=
EXTT11=
EXTT12=
EXTT13=
EXTT14=
EXTT15=
EXTT16=
EXTT17=
EXTT18=
EXTT19=
EXTT20=
EXTT21=
EXTT22=
PLAYORDER=
